<?xml version="1.0" standalone="no"?>
<!DOCTYPE svg PUBLIC "-//W3C//DTD SVG 20010904//EN"
 "http://www.w3.org/TR/2001/REC-SVG-20010904/DTD/svg10.dtd">
<svg version="1.0" xmlns="http://www.w3.org/2000/svg"
 width="500.000000pt" height="500.000000pt" viewBox="0 0 500.000000 500.000000"
 preserveAspectRatio="xMidYMid meet">

<g transform="translate(0.000000,500.000000) scale(0.100000,-0.100000)"
fill="#000000" stroke="none">
<path d="M2370 4990 c-8 -5 -36 -10 -62 -10 -55 0 -205 -27 -230 -41 -10 -5
-31 -9 -48 -9 -16 0 -30 -4 -30 -9 0 -5 -20 -12 -45 -15 -24 -4 -47 -11 -50
-17 -4 -5 -15 -9 -26 -9 -10 0 -19 -4 -19 -10 0 -5 -9 -10 -19 -10 -24 0 -125
-52 -216 -112 -116 -75 -199 -153 -280 -263 -17 -22 -32 -42 -35 -45 -19 -19
-110 -204 -110 -225 0 -7 -4 -17 -10 -20 -5 -3 -10 -16 -10 -29 0 -12 -4 -26
-9 -31 -14 -15 -32 -149 -25 -183 9 -42 56 -76 118 -84 58 -7 316 -35 451 -48
50 -5 105 -12 123 -16 48 -9 121 34 122 74 0 6 5 12 10 12 6 0 10 15 10 34 0
19 5 38 10 41 6 3 10 13 10 22 0 21 31 84 52 107 10 11 18 23 18 26 0 12 33
45 75 75 22 17 42 32 45 35 5 5 56 29 100 48 77 31 250 40 345 17 38 -9 136
-55 153 -72 7 -7 18 -16 25 -20 17 -11 67 -80 67 -92 0 -6 5 -11 10 -11 6 0
10 -11 10 -24 0 -13 4 -26 9 -28 28 -10 49 -424 23 -450 -6 -6 -53 -15 -104
-20 -256 -25 -527 -60 -663 -87 -137 -27 -236 -51 -257 -62 -10 -5 -29 -9 -43
-9 -14 0 -25 -4 -25 -10 0 -5 -9 -10 -20 -10 -23 0 -233 -99 -238 -112 -2 -4
-8 -8 -13 -8 -21 0 -139 -91 -214 -165 -81 -80 -155 -173 -155 -194 0 -6 -4
-11 -10 -11 -5 0 -10 -7 -10 -15 0 -8 -4 -15 -10 -15 -5 0 -10 -5 -10 -12 0
-6 -11 -34 -24 -62 -30 -62 -56 -140 -56 -166 0 -10 -4 -22 -10 -25 -5 -3 -10
-23 -10 -44 0 -20 -5 -42 -11 -48 -16 -16 -16 -430 0 -446 6 -6 11 -30 11 -53
0 -24 4 -45 9 -48 5 -3 12 -26 15 -51 4 -24 11 -47 17 -50 5 -4 9 -15 9 -26 0
-10 5 -19 10 -19 6 0 10 -6 10 -12 0 -19 52 -118 62 -118 4 0 8 -5 8 -11 0
-30 114 -152 200 -214 30 -22 57 -42 60 -45 3 -3 25 -14 50 -25 25 -11 47 -22
50 -25 3 -3 32 -14 65 -24 33 -10 68 -22 77 -27 10 -5 33 -9 51 -9 18 0 38 -5
44 -11 16 -16 471 -15 486 0 6 6 28 11 49 11 21 0 46 4 56 9 18 9 87 28 135
38 15 3 27 9 27 14 0 5 6 9 12 9 16 0 122 53 126 63 2 4 8 7 13 7 11 0 143 94
174 124 12 11 34 29 47 39 14 10 51 42 82 72 57 55 86 68 86 40 0 -8 4 -15 8
-15 5 0 17 -16 28 -35 10 -19 22 -35 26 -35 5 0 8 -5 8 -11 0 -6 6 -16 13 -24
6 -7 21 -26 32 -41 29 -43 221 -234 234 -234 6 0 11 -4 11 -10 0 -5 25 -10 57
-10 57 0 87 15 149 75 12 11 44 39 71 62 28 24 66 57 84 74 19 18 54 48 79 68
25 20 52 43 60 51 8 8 37 33 65 55 95 76 115 104 115 157 0 26 -4 48 -10 48
-5 0 -10 6 -10 13 0 8 -11 27 -25 43 -14 16 -25 32 -25 36 0 4 -6 13 -14 21
-21 20 -86 124 -86 137 0 5 -3 10 -8 10 -4 0 -13 15 -21 33 -7 17 -20 45 -27
61 -8 16 -14 36 -14 46 0 9 -4 20 -9 26 -19 20 -23 139 -29 966 -6 665 -10
860 -19 870 -7 6 -13 27 -13 45 0 18 -4 41 -9 51 -5 9 -18 45 -28 79 -10 35
-21 63 -25 63 -5 0 -8 7 -8 15 0 17 -48 98 -61 103 -5 2 -9 10 -9 17 0 16
-194 215 -209 215 -5 0 -16 6 -23 13 -7 6 -26 19 -43 27 -16 8 -32 18 -35 21
-8 10 -112 56 -165 74 -27 9 -58 21 -67 26 -10 5 -27 9 -38 9 -11 0 -28 4 -38
9 -25 13 -105 30 -207 43 -120 15 -466 21 -485 8z m571 -1932 c11 -97 -15
-575 -32 -592 -5 -6 -9 -20 -9 -33 0 -13 -4 -31 -9 -41 -5 -9 -16 -33 -24 -52
-36 -87 -42 -100 -49 -100 -5 0 -8 -6 -8 -13 0 -7 -11 -24 -25 -39 -14 -15
-25 -30 -25 -33 0 -3 -5 -11 -10 -18 -6 -7 -18 -21 -28 -33 -9 -11 -35 -33
-57 -49 -22 -17 -42 -32 -45 -35 -3 -3 -21 -12 -40 -21 -115 -53 -181 -65
-268 -48 -37 7 -71 16 -76 21 -6 4 -18 8 -28 8 -10 0 -18 4 -18 9 0 5 -9 12
-20 16 -58 18 -148 150 -172 250 -23 101 -8 379 23 410 5 5 9 17 9 27 0 10 4
18 9 18 5 0 11 8 15 18 3 9 11 26 18 37 21 32 126 135 137 135 6 0 11 4 11 10
0 5 11 12 25 16 14 3 25 10 25 15 0 5 9 9 20 9 11 0 20 5 20 10 0 6 8 10 18
10 10 0 22 3 25 6 12 12 112 43 140 44 15 0 27 4 27 9 0 12 212 36 348 39 51
2 72 -2 73 -10z"/>
</g>
</svg>
